<svg xmlns="http://www.w3.org/2000/svg" viewBox="0 0 32 32">
  <rect width="32" height="32" rx="4" fill="#0a0a0a"/>
  <path d="M16 4 L6 10 L6 16 C6 22.6 10.4 28.6 16 30 C21.6 28.6 26 22.6 26 16 L26 10 Z" fill="none" stroke="#00ff41" stroke-width="1.5" opacity="0.3"/>
  <path d="M16 7 L8.5 11.5 L8.5 16 C8.5 21.4 11.8 26.2 16 27.5 C20.2 26.2 23.5 21.4 23.5 16 L23.5 11.5 Z" fill="none" stroke="#00ff41" stroke-width="2"/>
  <rect x="13.5" y="13" width="5" height="6" rx="1" fill="none" stroke="#00ff41" stroke-width="1.5"/>
  <path d="M14.5 13 L14.5 11.5 C14.5 10.7 15.2 10 16 10 C16.8 10 17.5 10.7 17.5 11.5 L17.5 13" fill="none" stroke="#00ff41" stroke-width="1.5"/>
  <circle cx="16" cy="16" r="0.8" fill="#00ff41"/>
</svg>
